<svg xmlns="http://www.w3.org/2000/svg" width="359" height="460" viewBox="0 0 359 460">
  <path d="M0,230c0-38.078,4.22-76.738,9.16-108.952,6.975-45.483,15.387-78.115,15.387-78.115S56.686,0,182.568,0s161.09,39.867,161.09,39.867S359,127.974,359,148.733c-95.131,5.245-134.1,61.526-133.474,65.934,4.447,31.143,4.878,45.646,6.136,72.066s-9.205,52.134-9.205,52.134S188,297.231,142.679,331.2,81.312,460,81.312,460,0,321.843,0,230Zm56.765-30.667s16.864,40.027,47.56,42.934,39.889-27.6,39.889-27.6-14.2-31.232-49.094-32.2S56.765,199.333,56.765,199.333Z"/>
</svg>
